/* XPM */
static char *Jgg_Yx_V[] = {
/* columns rows colors chars-per-pixel */
"64 64 20 1",
"  c #2D2D2D",
". c #373737",
"X c #3B3B3B",
"o c #3D3D3D",
"O c #434343",
"+ c #464646",
"@ c #494949",
"# c #4E4E4E",
"$ c #515151",
"% c #565656",
"& c #585858",
"* c #5E5E5E",
"= c #606060",
"- c #656565",
"; c #696969",
": c #6D6D6D",
"> c #737373",
", c #767676",
"< c #7B7B7B",
"1 c #7C7C7C",
/* pixels */
"#$$#&%#@++&&=&#$$$%@+#&$+$$#@$%$%##&$###O##@@$+$#%@+#*@+&%$$%$##",
"@@@#$$##+$=*%$+$@##O@#*-@@%%$&##%%%%$%$@+%$@O#@&%@$@O%#O%+@%$@+%",
"$$%&%#@&$#$&$%*&$+$#$&%%@$%@o##@%&$#%@+$&%@+@##$%$++&&@@#@#$%&*=",
"=#$&#%%&+&-*&$@##+=O$*&%$$OO+%%%%$#+%#@+$++%$@%&&O$&%X#*@@#@@+%%",
"-$#*#%$$O*%$@oO#&#%@$%&$$$+$##@%$+oO%%$+$@$%+@%@#@@X+#:=#@%$$%*&",
"&$+#+$@+@*+#@O+@$@++@&*$$+&%@+o$$++@*+#$@ $$$####$+@*&&$+%%@@@%#",
"&@@OO$#+&#@@+oOo#@@#$-$+++$O@%%*%%%#%%&#*$1-$$#%@@+@&&$$O#%&%##+",
"#@@+##+@%#%$%#@#$@o@@#@@O%#%&$*-:%$%%%&@$+$@@#%=$#%$$*%$$%&#+#%*",
"+o@#$#$$@+&@%#$$+OOOO@$$@-%%+@$%#O#%#$@&%$#*&##%##%#$&$@@@@#$&%#",
"+#%##$@@@@$O@$$+O*%%#$#$#%@o+$%$OO#%#+#$@*$*$$$&$O#$$$$$+O#%####",
"+X###@#%@%$+@##O.+o$##$@+O++@o@+O@*&@&=+$*$$@%$$&$-&%###@###+$%+",
"++$@$+$##@$$%O$+%&%=OX+#$o@@+@+O+o#$@#$#@%$#*&%$#%&%#$@#@##$@#$+",
"@+o@#@++O@#O@#&@#$==##%#$+&$$$$#++*=%@###&@%*%$*#$%&$@$&=&@&#$&&",
"+$@&+@@##+O#$$%$*$$+o%=%#o$@+O%%$$+$@#&#@$+*%+@##@@+#+O$&$*##$&%",
"&$$%+@#o@#O@###O@#$+$#@#&#%%#O+O@$$&%##++@$&@+#+#@%#$@#*#$%$$&&#",
"$@@@+$@o$O#&$$*@#$+O#+$%%@%&+$$o*%@#@###&=-&#@@#=@OXO##*$=*@%=#@",
"##%###O$%@@&@&%@+#@+@#%&%%%$@%X#>&$&$&%#%@$+@&*$#o+@$%#%$#++*%#&",
"$+@O$&#%O+#-O=$O#$$@#@$##@&@#@@-&++%$%@@%+#@OO@##O@$#++##+%=$*@$",
"#+$$$$@#O-:*==$#$$@*@+%$#@$$$@$#$+@&#&++%+%#oo&#O##$##&%#$&$@@@%",
"$$$#+@#@$&@$&$*$$@%%@$*&#+###+@@$@#$$%$@$+#X@$-$@$$$$$%##@%+++#$",
"o@#$@+++$O=;=@%@@$#$@%&$#+%o@oO#%&$#$%#$$@$@$#&*@#@#@#%##%&%%@$%",
"-=#$&&$#;;<@%@%##%#O#%$#+@@@%$#@#@$#@@@$#o%%#$$@@%%$$$#@$#$%#%&=",
"-%+$@+#&=*@+*%%%+$@#-#@###$%&=*%$$$@#%*%@$-+#@#%$$+++#@+%$%%$@+$",
"$@#$##%$##+#$@@@#%+#%$#@++#$*&%@%&#O$$#@+%#@#$&%$%$%#&@O#$$%%+O+",
"@#*#%*#$$+#%#o++@@@&$+@@%@$=%$%%&#o&&%##$$Oo@@#+o@+@$#O+$@@#+###",
"$%$$&#$#++@@@oX@#%*%@%##$@-;%%$#@O#=$@+#%$@#OX+##$$@##%*%&*&%#$#",
"$O$&##$OO#@@+++@%*++%$@%$#&#$#&#O#%@%##+#$+$$#++$$@+@@$#%=*@#@##",
"%@+%@#$@O$++$O#==%$*@=%$%##%$#@@#@+$&+@#&=&%##%&#$@#$%%#@#%%*@$&",
"&$$$%$%+#%$$*&%$#%$@$-@$+++%@%$##@+%%O@+&*&&#O++$%####+@*=%%$@%#",
"%$%#%#@#$$%@@OO%$#&%&=%#@%&&$#%%%$@&$+$+%$%+&+###=#$$$#%*#$%+++o",
"%##%$+%&#@##@+@%###o$$+$+$#$#$%###%*#+@@%%$@%O#$@#$$$#%$&++@O%$#",
"$#$%##&%+++#%o@+#O%$*%$$#+####@#%$$+OO##$#%O$+%&&%*#$$@$$@=$+$$+",
"$%@+$@%%@#@@@%$&%%%&@@O@@O@#@+$@###+++%&%%$@*&&=$#+$$#X@+#&%%%$@",
"+$%$$#%#%O@#$$@%#$####+$$@+@O###@#$#O+#$##$$$$#@@@#$++#&&$%&@#@%",
"@%#+&+#%#@$*%+###O#$$$$$@####&@@@$$O#@%*%*$%#*$$@+##%*&%%&*&##@%",
"$@o@$#@@#$@$#@$O@@%%+$$%%#++&+++$%$+$@#%*%$%%&$+#+$&#$$&@#@$$O#$",
"#o+#%%%&=%##@@+%@&#+@@=%#@$##$O#$@$+@&*=*#@@@$#+#+OO++%$#@O%%+$%",
"#@&-&$%%*###@$%&O@XO@@$$@$&@&%$$#$+@%-#$$+##O@+O@o+oO@#+O+$$+@%*",
"#@++X+%&#@$#O@@+@%$@&$=&O#$#$*%$$%@%####@%$$+@@O@@++o##$##++@+#$",
"$@+#&:&#+@@+O+o###$+;$@@+####$#$@#@%@%#@$$@OO+#$@+Oo+&%%@O+#+@#@",
"###*&$#%#&$oo@%&@@$#%%%%@&%$##%++&&%+&##@#+o@#++%##++*$@@@#$o#@$",
"@#*&#@$#%#++O#@O#&#O@%$$%*$$$%oo*#&=%$###$+@@$O$#++O#&#@O@@@+*&%",
"###@###+$@@$@$#@#$@@&%$#%&$####=;$&%#&$##%$&$$O$@%O#%$#$$#+O+;*#",
"$+##$@%+#+++O+#$@$$%%$$++++#$&*=%##&%%$%$#O++$+*&&%#@++$##&$%&%$",
"@O$+##%O$$#@++$%@###Ooo+#++##%%$#$$%#$%@$$+@&&%$#O+++$=*%$%$&&$$",
"@O&%$&@+*@@#+#*&$+##@o@#%@@+#&%%OO#$@@@@%$+++@$#++##&%#$##@+@$$%",
"@*&@%@O&&&#@@@#+@@=#@#&$$$+%O@$#+##%$+#*#&+O$=#O@#@+$O@%#%@+$%$$",
"@#O#&@@$&$+##@##o%&@@##@$&&$+=%**$#@@+#$@#+$=#O+#%%%&$$%###@##@$",
"%$@-=&&%%%##+@+o@$#%@@#@#$$+#&=%@@O@$$$#@#@$%++#+#$&%%$%@##@@#@+",
"#%$#o$#$$#@@@$+O@#$*$&%O%&&@&*%%%###%#O$#*$$$++%$%$#%%##$%$@#@$$",
"#Oo&=:%&&##$$#@+++*&#%#O*&&@@&*$O#@@##%-$$+$$@$&%@#$%%@@&@$##+@@",
"&@#;%%$%$#%&+++o@%&%*#@&*#O+#%@@#$#%%%$$#&%&&&####&&-$@#@@@O##%$",
"%O+$$%$#&&#*&#$$%$#*%+$&$&%&$*$$*$$$%%%%$#O$*&%*$&*%=@$#@@@+#@&&",
"OO$;*%O+*&OO#@$*%$==%$$##O$@+*#*=###$#@+#+#%&&#$#$&%&#$@$%%$@@=O",
"+##=%$+&*%o+@#+#&#&*$%#@@#@+O#@$*@%##++##+&*@%#+%$%&$*%%$#+#+#=@",
"@##*+$#@$#o$-+o**#%#@%+#*&@@@@O@#@%$#@O+$#@@#$$#%+@@##@$@@#+###+",
"$$&%@#@o@$++%$=;%#o++@+#$++@#XX$#$$@#@++#$O@$$*###@$$@$$$%#@#$@@",
"+$%%%#+@+.+@$@@=++#@@O@##$##$@*:#&@o%+@$&$@*-*$$O@@##@#+#@#@#$##",
"@#*@$+O##**$$@@&+$@#$$#+%##@##$%@###@@+$@$#+@+@@+@O@#%@+@#@@#@@$",
"&*&@+@#$%&*$%##:@@$$@#OX*$%+#@oO#%%++@O$$+$+&%%$+#@$#$+#@@#$$@$%",
"O@%%**#@%=%@+O#-%**$#@$$;%+O#$$=*&@O#&+o+o+#@$@#%$#$%@$%@$%@@&#$",
"$=-#$$%+&%#@%,;=&@%%@@$@&*#$**$$#+@O+$@$-%&-%*#&$#@+@@$#@+@$@&+@",
"*:=%@%@+#$@+%$+$%@&$#@%$=%$$@$$@@@+oO@@@@###$$$#+$@%$#$@$$&&&*%=",
";*%##@@+$%##*+$#O@%@##+#$#++@*$+#@$#+@%O@%###$%$$&=&%&$+$%%&%%#$"
};
